<svg width="538" height="772" viewBox="0 0 538 772" fill="none" xmlns="http://www.w3.org/2000/svg">
<path d="M302.65 349.993L288.128 510.436" stroke="#19141E" stroke-width="16.1353" stroke-linecap="round"/>
<path d="M288.127 524.928L294.166 709.368" stroke="#19141E" stroke-width="16.1353" stroke-linecap="round"/>
<path d="M360.369 348.825L361.17 508.86" stroke="#19141E" stroke-width="16.1353" stroke-linecap="round"/>
<path d="M361.17 515.706L382.717 714.555" stroke="#19141E" stroke-width="16.1353" stroke-linecap="round"/>
<path fill-rule="evenodd" clip-rule="evenodd" d="M367.701 343.253C367.701 349.483 362.615 354.58 356.398 354.58H305.47C299.253 354.58 294.166 349.483 294.166 343.253C294.166 337.023 299.253 331.925 305.47 331.925H356.398C362.615 331.925 367.701 337.023 367.701 343.253ZM357.264 492.281C357.228 492.28 357.191 492.28 357.155 492.28C348.635 492.28 341.729 501.128 341.729 512.042C341.729 522.956 348.634 531.803 357.154 531.803L365.638 531.804V531.796C373.963 531.51 380.643 522.776 380.643 512.042C380.643 501.308 373.963 492.573 365.638 492.287V492.281H365.326C365.29 492.28 365.253 492.28 365.217 492.28C365.181 492.28 365.144 492.28 365.108 492.281H357.264ZM285.033 492.281L284.987 492.28L284.924 492.28C276.405 492.28 269.498 501.128 269.498 512.042C269.498 522.956 276.404 531.803 284.924 531.803L293.407 531.804V531.796C301.732 531.51 308.412 522.776 308.412 512.042C308.412 501.308 301.732 492.573 293.407 492.287V492.281H293.095C293.058 492.28 293.022 492.28 292.986 492.28C292.949 492.28 292.913 492.28 292.877 492.281H285.033ZM335.186 728.985H399.148L389.043 703.048L335.186 728.985ZM306.639 728.985H242.676L296.533 703.048L306.639 728.985Z" fill="#089542"/>
<path opacity="0.403041" fill-rule="evenodd" clip-rule="evenodd" d="M293.624 531.681C301.949 531.395 308.629 522.66 308.629 511.927C308.629 501.193 301.949 492.458 293.624 492.172V492.166H293.311C293.275 492.165 293.239 492.165 293.203 492.165C293.166 492.165 293.13 492.165 293.094 492.166H285.25C285.214 492.165 285.177 492.165 285.141 492.165C276.622 492.165 269.715 501.013 269.715 511.927C269.715 522.841 276.621 531.688 285.141 531.688L293.624 531.688V531.681ZM303.318 511.927C303.318 518.316 299.865 523.495 295.606 523.495C291.345 523.495 287.893 518.316 287.893 511.927C287.893 505.537 291.345 500.358 295.606 500.358C299.865 500.358 303.318 505.537 303.318 511.927ZM365.72 531.761C374.045 531.476 380.725 522.741 380.725 512.007C380.725 501.273 374.045 492.538 365.72 492.252V492.246H365.408C365.372 492.245 365.335 492.245 365.299 492.245C365.263 492.245 365.227 492.245 365.19 492.246H357.346C357.31 492.245 357.273 492.245 357.237 492.245C348.717 492.245 341.811 501.093 341.811 512.007C341.811 522.921 348.716 531.768 357.236 531.768L365.72 531.769V531.761ZM375.416 512.007C375.416 518.396 371.963 523.576 367.703 523.576C363.443 523.576 359.991 518.396 359.991 512.007C359.991 505.618 363.443 500.438 367.703 500.438C371.963 500.438 375.416 505.618 375.416 512.007Z" fill="black"/>
<path opacity="0.602888" fill-rule="evenodd" clip-rule="evenodd" d="M375.396 512.084C375.396 518.472 371.943 523.652 367.684 523.652C363.424 523.652 359.971 518.472 359.971 512.084C359.971 505.694 363.424 500.514 367.684 500.514C371.943 500.514 375.396 505.694 375.396 512.084Z" fill="black"/>
<path opacity="0.603864" fill-rule="evenodd" clip-rule="evenodd" d="M303.26 511.923C303.26 518.312 299.806 523.491 295.547 523.491C291.287 523.491 287.834 518.312 287.834 511.923C287.834 505.533 291.287 500.354 295.547 500.354C299.806 500.354 303.26 505.533 303.26 511.923Z" fill="black"/>
<path opacity="0.39588" fill-rule="evenodd" clip-rule="evenodd" d="M335.186 729.16H399.148L389.043 703.223L335.186 729.16Z" fill="black"/>
<path opacity="0.39588" fill-rule="evenodd" clip-rule="evenodd" d="M242.676 729.16H306.639L296.533 703.223L242.676 729.16Z" fill="black"/>
<path d="M180.113 322.958L230.613 193.721" stroke="#19141E" stroke-width="27.2283" stroke-linecap="round"/>
<path fill-rule="evenodd" clip-rule="evenodd" d="M387.123 316.219H270.119L252.277 297.024H404.965L387.123 316.219Z" fill="#19141E"/>
<path d="M456.707 328.616L436.927 191.279" stroke="#19141E" stroke-width="27.2283" stroke-linecap="round"/>
<path fill-rule="evenodd" clip-rule="evenodd" d="M222.567 269.328V230.566C221.643 230.387 220.719 230.167 219.797 229.904C202.74 225.029 192.866 207.259 197.744 190.211C202.62 173.164 220.403 163.296 237.46 168.171C238.167 168.373 238.861 168.597 239.543 168.843C244.03 166.439 249.149 165.073 254.571 165.073H404.958C409.842 165.073 414.479 166.181 418.631 168.158C423.532 165.131 429.309 163.384 435.494 163.384C453.235 163.384 467.617 177.757 467.617 195.488C467.617 212.726 454.022 226.791 436.962 227.558V269.328C436.962 286.919 422.561 301.313 404.958 301.313H254.571C236.968 301.313 222.567 286.919 222.567 269.328ZM493.044 453.67C491.798 470.359 480.843 484.119 466.141 489.818C470.07 494.888 472.408 501.251 472.408 508.159C472.408 519.011 466.646 528.515 458.012 533.781C454.602 535.86 450.306 533.356 450.315 529.365V529.279C450.315 515.887 442.937 505.032 433.834 505.032C429.091 505.032 424.813 507.978 421.807 512.693C419.17 516.828 412.824 515.234 412.473 510.344C412.395 509.265 412.374 508.169 412.414 507.062C412.755 497.462 417.721 488.95 425.124 483.697C414.422 475.305 407.928 461.904 409.011 447.404L415.484 360.695C417.208 337.599 437.527 320.113 460.636 321.837C483.744 323.56 501.242 343.865 499.517 366.961L493.044 453.67ZM65.2278 227.566C62.7014 221.059 57.9054 215.402 51.2451 211.899C41.6404 206.848 30.5462 207.525 21.8664 212.715C18.4391 214.764 18.6552 219.732 22.192 221.582L22.2202 221.597C22.2359 221.605 22.2517 221.613 22.2679 221.621C34.1202 227.855 40.2925 239.437 36.0551 247.494C33.8469 251.693 29.2483 254.107 23.6763 254.573C18.7892 254.982 17.2454 261.341 21.41 263.928C22.3292 264.499 23.2889 265.027 24.2872 265.507C30.9005 268.691 38.2072 269.189 44.8981 267.416C46.0882 280.576 53.3983 293.003 65.6176 300.113L140.773 343.841C160.79 355.488 186.703 348.629 198.357 328.6C210.011 308.57 203.169 282.652 183.151 271.006L107.996 227.278C94.3519 219.339 77.968 219.998 65.2278 227.566ZM357.314 315.925V334.459H302.212V315.925H357.314Z" fill="#089542"/>
<path opacity="0.394764" fill-rule="evenodd" clip-rule="evenodd" d="M411.269 507.258C411.23 508.365 411.251 509.46 411.328 510.539C411.68 515.429 418.025 517.023 420.662 512.889C423.669 508.174 427.946 505.228 432.69 505.228C441.792 505.228 449.171 516.082 449.171 529.475V529.56C449.161 533.551 453.458 536.056 456.868 533.976C465.501 528.71 471.264 519.206 471.264 508.354C471.264 491.489 457.328 477.874 440.329 478.384C424.667 478.854 411.826 491.609 411.269 507.258ZM263.992 231.042C263.992 251.591 278.958 268.642 298.59 271.913C298.873 271.865 299.148 271.817 299.429 271.76C318.651 268.166 333.197 251.301 333.197 231.042C333.197 210.784 318.651 193.919 299.429 190.325C299.148 190.268 298.873 190.22 298.59 190.172C278.958 193.443 263.992 210.494 263.992 231.042ZM329.658 231.098C329.658 244.355 318.905 255.101 305.64 255.101C292.374 255.101 281.621 244.355 281.621 231.098C281.621 217.841 292.374 207.093 305.64 207.093C318.905 207.093 329.658 217.841 329.658 231.098ZM466.641 195.683C466.641 177.953 452.258 163.58 434.517 163.58C416.776 163.58 402.394 177.953 402.394 195.683C402.394 213.414 416.776 227.787 434.517 227.787C452.258 227.787 466.641 213.414 466.641 195.683ZM458.891 189.733C458.891 198.334 451.914 205.307 443.307 205.307C434.701 205.307 427.724 198.334 427.724 189.733C427.724 181.131 434.701 174.159 443.307 174.159C451.914 174.159 458.891 181.131 458.891 189.733ZM238.455 169.123C237.773 168.878 237.079 168.654 236.372 168.452C219.315 163.576 201.532 173.444 196.655 190.491C191.778 207.539 201.651 225.31 218.709 230.184C219.631 230.447 220.555 230.668 221.479 230.846V197.338C221.479 185.165 228.374 174.524 238.455 169.123ZM355.201 264.286C355.201 259.733 351.507 256.042 346.952 256.042C342.395 256.042 338.702 259.733 338.702 264.286C338.702 268.839 342.395 272.531 346.952 272.531C351.507 272.531 355.201 268.839 355.201 264.286ZM379.045 264.286C379.045 259.733 375.351 256.042 370.796 256.042C366.24 256.042 362.546 259.733 362.546 264.286C362.546 268.839 366.24 272.531 370.796 272.531C375.351 272.531 379.045 268.839 379.045 264.286ZM487.739 373.597C488.091 369.057 484.694 365.092 480.151 364.74C475.608 364.389 471.641 367.784 471.289 372.323C470.937 376.863 474.334 380.828 478.876 381.18C483.419 381.531 487.386 378.136 487.739 373.597ZM485.975 396.34C486.327 391.8 482.93 387.835 478.388 387.483C473.846 387.132 469.878 390.526 469.526 395.066C469.174 399.606 472.571 403.57 477.114 403.922C481.656 404.274 485.623 400.879 485.975 396.34ZM484.17 419.632C484.523 415.093 481.126 411.128 476.583 410.776C472.04 410.424 468.073 413.819 467.721 418.358C467.369 422.898 470.766 426.864 475.308 427.215C479.851 427.567 483.818 424.172 484.17 419.632ZM356.58 334.412V315.878H300.945V334.412H356.58Z" fill="black"/>
<path fill-rule="evenodd" clip-rule="evenodd" d="M298.785 271.967C279.152 268.695 264.186 251.644 264.186 231.096C264.186 210.548 279.152 193.497 298.785 190.225C296.56 189.854 294.271 189.661 291.94 189.661C269.041 189.661 250.479 208.211 250.479 231.096C250.479 253.981 269.041 272.531 291.94 272.531C294.271 272.531 296.56 272.337 298.785 271.967Z" fill="#19141E"/>
<path d="M281.858 107.371H306.422" stroke="#19141E" stroke-width="5.04228" stroke-linecap="round"/>
<path d="M356.842 73.8916C361.512 73.8916 365.334 77.7103 365.334 82.3784" stroke="#D7E021" stroke-width="5.04228" stroke-linecap="round"/>
<path d="M393.246 107.371H363.033" stroke="#19141E" stroke-width="5.04228" stroke-linecap="round"/>
<path fill-rule="evenodd" clip-rule="evenodd" d="M282.989 152.702C278.529 153.02 275.009 156.737 275.009 161.276V165.14H389.703V161.276C389.703 156.737 386.184 153.02 381.723 152.702V151.172C381.723 145.94 377.898 141.559 372.906 140.681V77.5854C372.906 71.6982 368.086 66.8818 362.195 66.8818H302.516C296.626 66.8818 291.806 71.6982 291.806 77.5854V140.681C286.814 141.559 282.989 145.94 282.989 151.172V152.702ZM264.782 107.371C264.782 113.114 269.44 117.77 275.186 117.77C280.933 117.77 285.592 113.114 285.592 107.371C285.592 101.628 280.933 96.9732 275.186 96.9732C269.44 96.9732 264.782 101.628 264.782 107.371ZM392.94 96.9732C398.687 96.9732 403.346 101.628 403.346 107.371C403.346 113.114 398.687 117.77 392.94 117.77C387.194 117.77 382.535 113.114 382.535 107.371C382.535 101.628 387.194 96.9732 392.94 96.9732Z" fill="#089542"/>
<path opacity="0.395926" fill-rule="evenodd" clip-rule="evenodd" d="M381.723 152.702V150.047C381.256 145.233 376.927 140.52 371.065 140.52H293.647C287.785 140.52 283.638 144.871 282.989 149.7V152.702C278.529 153.02 275.009 156.737 275.009 161.276V165.14H389.703V161.276C389.703 156.737 386.184 153.02 381.723 152.702ZM264.782 107.371C264.782 113.114 269.44 117.77 275.186 117.77C280.933 117.77 285.592 113.114 285.592 107.371C285.592 101.628 280.933 96.9731 275.186 96.9731C269.44 96.9731 264.782 101.628 264.782 107.371ZM403.346 107.371C403.346 101.628 398.687 96.9731 392.94 96.9731C387.194 96.9731 382.535 101.628 382.535 107.371C382.535 113.114 387.194 117.77 392.94 117.77C398.687 117.77 403.346 113.114 403.346 107.371Z" fill="black"/>
<path d="M381.043 152.958H283.23" stroke="#19141E" stroke-width="5.04228"/>
<path d="M356.211 124.33H291.806" stroke="#19141E" stroke-width="7.05919"/>
<path fill-rule="evenodd" clip-rule="evenodd" d="M339.377 93.7328C343.917 97.4669 344.568 104.172 340.831 108.709C337.095 113.246 330.385 113.896 325.846 110.162C321.306 106.428 320.656 99.7224 324.392 95.1856C328.129 90.6489 334.838 89.9986 339.377 93.7328Z" fill="#D7E021"/>
<path fill-rule="evenodd" clip-rule="evenodd" d="M333.69 98.2875C335.775 100.003 336.074 103.083 334.358 105.167C332.641 107.251 329.559 107.55 327.474 105.835C325.388 104.119 325.089 101.039 326.806 98.9547C328.523 96.8709 331.605 96.5719 333.69 98.2875Z" fill="#19141E"/>
<path fill-rule="evenodd" clip-rule="evenodd" d="M311.375 93.7328C315.915 97.4669 316.566 104.172 312.829 108.709C309.093 113.246 302.383 113.896 297.844 110.162C293.304 106.428 292.654 99.7224 296.39 95.1856C300.127 90.6489 306.836 89.9986 311.375 93.7328Z" fill="#D7E021"/>
<path fill-rule="evenodd" clip-rule="evenodd" d="M305.686 98.2875C307.771 100.003 308.071 103.083 306.354 105.167C304.637 107.251 301.556 107.55 299.47 105.835C297.385 104.119 297.085 101.039 298.802 98.9547C300.519 96.8709 303.601 96.5719 305.686 98.2875Z" fill="#19141E"/>
<path opacity="0.394764" fill-rule="evenodd" clip-rule="evenodd" d="M151.114 284.147C155.15 286.254 160.13 284.688 162.239 280.648C164.346 276.609 162.783 271.626 158.747 269.52C154.71 267.413 149.729 268.98 147.621 273.019C145.514 277.058 147.078 282.04 151.114 284.147Z" fill="black"/>
<path opacity="0.394764" fill-rule="evenodd" clip-rule="evenodd" d="M130.891 273.592C134.928 275.699 139.908 274.132 142.016 270.094C144.123 266.054 142.56 261.072 138.524 258.965C134.487 256.858 129.507 258.425 127.398 262.464C125.291 266.504 126.855 271.485 130.891 273.592Z" fill="black"/>
<path opacity="0.394764" fill-rule="evenodd" clip-rule="evenodd" d="M110.18 262.782C114.216 264.889 119.197 263.322 121.305 259.283C123.413 255.243 121.849 250.262 117.813 248.155C113.776 246.048 108.795 247.614 106.688 251.653C104.58 255.693 106.143 260.674 110.18 262.782Z" fill="black"/>
<path opacity="0.394764" fill-rule="evenodd" clip-rule="evenodd" d="M24.3861 265.594C23.3852 265.119 22.423 264.595 21.501 264.029C17.3227 261.464 18.832 255.098 23.7165 254.663C29.2864 254.167 33.872 251.728 36.0577 247.518C40.252 239.439 34.0186 227.889 22.1325 221.718L22.0566 221.679C18.51 219.849 18.2671 214.881 21.6842 212.813C30.3358 207.577 41.4259 206.842 51.0571 211.843C66.0255 219.614 71.6871 238.255 63.4014 253.107C55.7678 266.791 38.531 272.311 24.3861 265.594Z" fill="black"/>
</svg>
